<?xml version="1.0" encoding="UTF-8" standalone="no"?>
<!-- Created with Inkscape (http://www.inkscape.org/) -->

<svg
   xmlns:dc="http://purl.org/dc/elements/1.1/"
   xmlns:cc="http://creativecommons.org/ns#"
   xmlns:rdf="http://www.w3.org/1999/02/22-rdf-syntax-ns#"
   xmlns:svg="http://www.w3.org/2000/svg"
   xmlns="http://www.w3.org/2000/svg"
   xmlns:sodipodi="http://sodipodi.sourceforge.net/DTD/sodipodi-0.dtd"
   xmlns:inkscape="http://www.inkscape.org/namespaces/inkscape"
   sodipodi:docname="Strategy_Concept.svg"
   inkscape:version="0.48.4 r9939"
   version="1.1"
   id="svg2"
   height="455.48529"
   width="455.48529">
  <sodipodi:namedview
     id="base"
     pagecolor="#ffffff"
     bordercolor="#666666"
     borderopacity="1.0"
     inkscape:pageopacity="0.0"
     inkscape:pageshadow="2"
     inkscape:zoom="0.64854167"
     inkscape:cx="119.60432"
     inkscape:cy="170.70226"
     inkscape:document-units="px"
     inkscape:current-layer="layer1"
     showgrid="false"
     inkscape:window-width="1280"
     inkscape:window-height="780"
     inkscape:window-x="-4"
     inkscape:window-y="-3"
     inkscape:window-maximized="1"
     showguides="true"
     inkscape:guide-bbox="true"
     fit-margin-top="25"
     fit-margin-left="25"
     fit-margin-right="25"
     fit-margin-bottom="25"
     inkscape:object-nodes="false"
     inkscape:snap-smooth-nodes="false">
    <inkscape:grid
       id="grid2987"
       type="xygrid"
       empspacing="5"
       visible="true"
       enabled="true"
       snapvisiblegridlinesonly="true"
       originx="327.76887px"
       originy="-346.20746px" />
  </sodipodi:namedview>
  <defs
     id="defs4">
    <inkscape:path-effect
       effect="spiro"
       id="path-effect4255"
       is_visible="true" />
    <inkscape:path-effect
       effect="skeletal"
       id="path-effect4224"
       is_visible="true"
       pattern="M 0,50 100,40 90,60 160,30 90,0 100,20 0,10 c 10,20 0,40 0,40 z"
       copytype="single_stretched"
       prop_scale="1"
       scale_y_rel="false"
       spacing="0"
       normal_offset="0"
       tang_offset="0"
       prop_units="false"
       vertical_pattern="false"
       fuse_tolerance="0" />
    <inkscape:path-effect
       effect="skeletal"
       id="path-effect4206"
       is_visible="true"
       pattern="M 0,50 100,40 90,60 160,30 90,0 100,20 0,10 c 10,20 0,40 0,40 z"
       copytype="single_stretched"
       prop_scale="1"
       scale_y_rel="false"
       spacing="0"
       normal_offset="0"
       tang_offset="0"
       prop_units="false"
       vertical_pattern="false"
       fuse_tolerance="0" />
    <inkscape:path-effect
       fuse_tolerance="0"
       vertical_pattern="false"
       prop_units="false"
       tang_offset="0"
       normal_offset="0"
       spacing="0"
       scale_y_rel="false"
       prop_scale="1"
       copytype="single_stretched"
       pattern="M 0,50 100,40 90,60 160,30 90,0 100,20 0,10 c 10,20 0,40 0,40 z"
       is_visible="true"
       id="path-effect3908"
       effect="skeletal" />
    <inkscape:path-effect
       fuse_tolerance="0"
       vertical_pattern="false"
       prop_units="false"
       tang_offset="0"
       normal_offset="0"
       spacing="0"
       scale_y_rel="false"
       prop_scale="1"
       copytype="single_stretched"
       pattern="M 10,160 20,60 0,70 30,0 60,70 40,60 50,160 c -20,-10 -40,0 -40,0 z"
       is_visible="true"
       id="path-effect3841"
       effect="skeletal" />
    <inkscape:path-effect
       fuse_tolerance="0"
       vertical_pattern="false"
       prop_units="false"
       tang_offset="0"
       normal_offset="0"
       spacing="0"
       scale_y_rel="false"
       prop_scale="1"
       copytype="single_stretched"
       pattern="M 10,160 20,60 0,70 30,0 60,70 40,60 50,160 c -20,-10 -40,0 -40,0 z"
       is_visible="true"
       id="path-effect3831"
       effect="skeletal" />
  </defs>
  <metadata
     id="metadata7">
    <rdf:RDF>
      <cc:Work
         rdf:about="">
        <dc:format>image/svg+xml</dc:format>
        <dc:type
           rdf:resource="http://purl.org/dc/dcmitype/StillImage" />
        <dc:title />
      </cc:Work>
    </rdf:RDF>
  </metadata>
  <g
     id="layer1"
     inkscape:groupmode="layer"
     inkscape:label="Layer 1"
     transform="translate(327.76887,-250.66948)">
    <path
       inkscape:connector-curvature="0"
       id="path4742"
       d="m -4.8918232,534.54209 0,-25 10,0 0,25 z"
       style="fill:#000000;fill-opacity:1;stroke:none"
       sodipodi:nodetypes="ccccc" />
    <path
       sodipodi:type="arc"
       style="fill:#ffffff;fill-opacity:1;stroke:#000000;stroke-width:2.30411482;stroke-miterlimit:4;stroke-opacity:1;stroke-dasharray:none"
       id="path4539"
       sodipodi:cx="241.07143"
       sodipodi:cy="429.86218"
       sodipodi:rx="21.071428"
       sodipodi:ry="21.071428"
       d="m 262.14285,429.86218 c 0,11.63743 -9.434,21.07143 -21.07142,21.07143 -11.63743,0 -21.07143,-9.434 -21.07143,-21.07143 0,-11.63743 9.434,-21.07143 21.07143,-21.07143 11.63742,0 21.07142,9.434 21.07142,21.07143 z"
       transform="matrix(-1.3020185,0,0,1.3020185,299.95012,-176.37739)" />
    <path
       style="fill:#000000;fill-opacity:1;stroke:none"
       d="m -199.88876,518.42797 c 6.58686,0 75.09024,1.31737 144.911006,-59.28177 l -15.808478,-2.63474 c 27.014187,-14.43861 42.62168,-39.90704 42.62168,-39.90704 0,0 0.6724,28.87084 -5.735242,60.985 l -9.221613,-12.08238 c -81.508283,97.80993 -144.911003,104.29848 -144.911003,104.29848 13.50708,-41.91855 -11.85635,-51.37755 -11.85635,-51.37755 z"
       id="path4525"
       inkscape:connector-curvature="0"
       sodipodi:nodetypes="cccccccc" />
    <path
       transform="matrix(0.98504068,-0.17232197,0.17232197,0.98504068,-370.54418,29.085971)"
       d="m 225,362.36218 c 0,22.09139 -17.90861,40 -40,40 -22.09139,0 -40,-17.90861 -40,-40 0,-22.09139 17.90861,-40 40,-40 22.09139,0 40,17.90861 40,40 z"
       sodipodi:ry="40"
       sodipodi:rx="40"
       sodipodi:cy="362.36218"
       sodipodi:cx="185"
       id="path4536"
       style="fill:none;stroke:#000000;stroke-width:3;stroke-linecap:butt;stroke-linejoin:round;stroke-miterlimit:4;stroke-opacity:1;stroke-dasharray:none;stroke-dashoffset:0"
       sodipodi:type="arc" />
    <path
       sodipodi:type="arc"
       style="fill:#000000;fill-opacity:1;stroke:#000000;stroke-opacity:1"
       id="path4538"
       sodipodi:cx="185"
       sodipodi:cy="362.36218"
       sodipodi:rx="40"
       sodipodi:ry="40"
       d="m 225,362.36218 c 0,22.09139 -17.90861,40 -40,40 -22.09139,0 -40,-17.90861 -40,-40 0,-22.09139 17.90861,-40 40,-40 22.09139,0 40,17.90861 40,40 z"
       transform="matrix(0.48014082,-0.08399532,0.08399532,0.48014082,-245.13147,195.70216)" />
    <path
       sodipodi:nodetypes="cccccccc"
       inkscape:connector-curvature="0"
       id="path4540"
       d="m -170.08622,637.18949 c 0,0 -93.94419,-59.599 -20.20305,-201.02036 l -26.26397,10.10153 c 0,0 19.88688,-42.40611 84.95434,-82.0972 0,0 -17.27412,25.52865 -11.2132,96.23933 l -16.16244,-21.2132 c -22.22336,100.0051 39.39595,158.59395 39.39595,158.59395 -42.42641,4.04061 -50.50763,39.39595 -50.50763,39.39595 z"
       style="fill:#000000;fill-opacity:1;stroke:none" />
    <path
       inkscape:connector-curvature="0"
       id="path4542"
       d="m -119.83741,388.62431 1.72322,9.85042"
       style="fill:none;stroke:#000000;stroke-width:3;stroke-linecap:butt;stroke-linejoin:miter;stroke-miterlimit:4;stroke-opacity:1;stroke-dasharray:none" />
    <path
       inkscape:connector-curvature="0"
       id="path4544"
       d="m -91.39226,348.11662 9.85042,-1.72322"
       style="fill:none;stroke:#000000;stroke-width:3;stroke-linecap:butt;stroke-linejoin:miter;stroke-miterlimit:4;stroke-opacity:1;stroke-dasharray:none" />
    <path
       inkscape:connector-curvature="0"
       id="path4546"
       d="m -133.62317,309.82105 1.72322,9.85042"
       style="fill:none;stroke:#000000;stroke-width:3;stroke-linecap:butt;stroke-linejoin:miter;stroke-miterlimit:4;stroke-opacity:1;stroke-dasharray:none" />
    <path
       inkscape:connector-curvature="0"
       id="path4548"
       d="m -160.34511,360.17916 -9.85041,1.72322"
       style="fill:none;stroke:#000000;stroke-width:3;stroke-linecap:butt;stroke-linejoin:miter;stroke-miterlimit:4;stroke-opacity:1;stroke-dasharray:none" />
    <path
       sodipodi:nodetypes="cccccccc"
       inkscape:connector-curvature="0"
       id="path4550"
       d="m 10.516264,588.36442 c -3.5815427,0 -40.829588,0.7163 -78.793948,-32.23388 l 8.595706,-1.43262 c -14.688701,-7.85085 -23.175121,-21.69906 -23.175121,-21.69906 0,0 -0.365612,15.69823 3.118481,33.15999 l 5.014162,-6.56966 c 44.319332,53.18319 78.793946,56.71127 78.793946,56.71127 -7.344347,-22.7928 6.446774,-27.93604 6.446774,-27.93604 z"
       style="fill:#000000;fill-opacity:1;stroke:none" />
    <path
       sodipodi:nodetypes="ccc"
       inkscape:connector-curvature="0"
       id="path4552"
       d="m -27.201799,372.74537 0,20.24264 28.5435861,0"
       style="fill:none;stroke:#000000;stroke-width:2.99999976;stroke-linecap:butt;stroke-linejoin:miter;stroke-miterlimit:4;stroke-opacity:1;stroke-dasharray:none" />
    <path
       sodipodi:nodetypes="cccc"
       inkscape:connector-curvature="0"
       id="path4554"
       d="m -20.618751,374.26357 8.15531,8.09706 4.0776562,-4.04853 8.15530996,8.09706"
       style="fill:none;stroke:#000000;stroke-width:2.99999976;stroke-linecap:butt;stroke-linejoin:miter;stroke-miterlimit:4;stroke-opacity:1;stroke-dasharray:none" />
    <path
       transform="matrix(-1.3020185,0,0,1.3020185,216.58903,-58.220555)"
       d="m 262.14285,429.86218 c 0,11.63743 -9.434,21.07143 -21.07142,21.07143 -11.63743,0 -21.07143,-9.434 -21.07143,-21.07143 0,-11.63743 9.434,-21.07143 21.07143,-21.07143 11.63742,0 21.07142,9.434 21.07142,21.07143 z"
       sodipodi:ry="21.071428"
       sodipodi:rx="21.071428"
       sodipodi:cy="429.86218"
       sodipodi:cx="241.07143"
       id="path4556"
       style="fill:#ffffff;fill-opacity:1;stroke:#000000;stroke-width:2.30411482;stroke-miterlimit:4;stroke-opacity:1;stroke-dasharray:none"
       sodipodi:type="arc" />
    <text
       sodipodi:linespacing="125%"
       id="text4558"
       y="514.31201"
       x="-106.82843"
       style="font-size:24px;font-style:normal;font-variant:normal;font-weight:normal;font-stretch:normal;line-height:125%;letter-spacing:0px;word-spacing:0px;fill:#000000;fill-opacity:1;stroke:none;font-family:Nimbus Roman No9 L;-inkscape-font-specification:Nimbus Roman No9 L"
       xml:space="preserve"><tspan
         style="font-size:38px;font-weight:bold;fill:#000000;fill-opacity:1;-inkscape-font-specification:Nimbus Roman No9 L Bold"
         y="514.31201"
         x="-106.82843"
         id="tspan4560"
         sodipodi:role="line">?</tspan></text>
    <path
       transform="matrix(0.87062017,0,0,0.87062017,-411.70825,56.716638)"
       d="m 588,484.36218 c 0,127.0255 -102.97451,230 -230,230 -127.02549,0 -230,-102.9745 -230,-230 0,-127.02549 102.97451,-230 230,-230 127.02549,0 230,102.97451 230,230 z"
       sodipodi:ry="230"
       sodipodi:rx="230"
       sodipodi:cy="484.36218"
       sodipodi:cx="358"
       id="path4566"
       style="fill:none;stroke:#000000;stroke-width:5.74303246;stroke-miterlimit:4;stroke-opacity:1;stroke-dasharray:none"
       sodipodi:type="arc" />
    <path
       style="fill:#000000;fill-opacity:1;stroke:none"
       d="m -59.456142,335.97357 -4.579847,2.00626 -2.006249,-4.57984 4.579842,-2.00625 z"
       id="path4675"
       inkscape:connector-curvature="0" />
    <path
       inkscape:connector-curvature="0"
       id="path4677"
       d="m -63.468645,326.81389 -4.579842,2.00625 -2.006253,-4.57984 4.579841,-2.00625 z"
       style="fill:#000000;fill-opacity:1;stroke:none"
       sodipodi:nodetypes="ccccc" />
    <path
       inkscape:connector-curvature="0"
       id="path4681"
       d="m -46.283956,341.12076 -4.579842,2.00625 -2.006254,-4.57984 4.579841,-2.00625 z"
       style="fill:#000000;fill-opacity:1;stroke:none"
       sodipodi:nodetypes="ccccc" />
    <path
       sodipodi:nodetypes="ccccc"
       style="fill:#000000;fill-opacity:1;stroke:none"
       d="m -50.296459,331.96107 -4.579843,2.00626 -2.006252,-4.57985 4.57984,-2.00624 z"
       id="path4683"
       inkscape:connector-curvature="0" />
    <path
       inkscape:connector-curvature="0"
       id="path4685"
       d="m -54.308961,322.80138 -4.579842,2.00626 -2.006255,-4.57984 4.579848,-2.00626 z"
       style="fill:#000000;fill-opacity:1;stroke:none"
       sodipodi:nodetypes="ccccc" />
    <path
       sodipodi:nodetypes="ccccc"
       style="fill:#000000;fill-opacity:1;stroke:none"
       d="m -58.321465,313.6417 -4.579841,2.00626 -2.006255,-4.57984 4.579848,-2.00626 z"
       id="path4687"
       inkscape:connector-curvature="0" />
    <g
       id="g4707"
       transform="matrix(0.78688635,-0.61709794,0.61709794,0.78688635,-530.9641,-142.27061)"
       style="fill:#ffffff;fill-opacity:1">
      <path
         style="fill:#ffffff;fill-opacity:1;stroke:none"
         d="m -178.23756,797.63673 0,-5 5,0 0,5 z"
         id="path4691"
         inkscape:connector-curvature="0" />
      <path
         inkscape:connector-curvature="0"
         id="path4693"
         d="m -168.23756,797.63673 0,-5 5,0 0,5 z"
         style="fill:#ffffff;fill-opacity:1;stroke:none"
         sodipodi:nodetypes="ccccc" />
      <path
         sodipodi:nodetypes="ccccc"
         style="fill:#ffffff;fill-opacity:1;stroke:none"
         d="m -158.23756,797.63673 0,-5 5,0 0,5 z"
         id="path4695"
         inkscape:connector-curvature="0" />
      <path
         inkscape:connector-curvature="0"
         id="path4697"
         d="m -188.23756,807.63673 0,-5 5,0 0,5 z"
         style="fill:#ffffff;fill-opacity:1;stroke:none"
         sodipodi:nodetypes="ccccc" />
      <path
         sodipodi:nodetypes="ccccc"
         style="fill:#ffffff;fill-opacity:1;stroke:none"
         d="m -178.23756,807.63673 0,-5 5,0 0,5 z"
         id="path4699"
         inkscape:connector-curvature="0" />
      <path
         inkscape:connector-curvature="0"
         id="path4701"
         d="m -168.23756,807.63673 0,-5 5,0 0,5 z"
         style="fill:#ffffff;fill-opacity:1;stroke:none"
         sodipodi:nodetypes="ccccc" />
      <path
         sodipodi:nodetypes="ccccc"
         style="fill:#ffffff;fill-opacity:1;stroke:none"
         d="m -158.23756,807.63673 0,-5 5,0 0,5 z"
         id="path4703"
         inkscape:connector-curvature="0" />
      <path
         inkscape:connector-curvature="0"
         id="path4705"
         d="m -148.23756,807.63673 0,-5 5,0 0,5 z"
         style="fill:#ffffff;fill-opacity:1;stroke:none"
         sodipodi:nodetypes="ccccc" />
    </g>
    <path
       style="fill:#000000;fill-opacity:1;stroke:none"
       d="m -225.78631,395.34195 0,-15 5,0 0,-5 5,0 0,5 5,0 5,5 5,0 0,10 z"
       id="path4717"
       inkscape:connector-curvature="0"
       sodipodi:nodetypes="ccccccccccc" />
    <path
       sodipodi:type="arc"
       style="fill:#000000;fill-opacity:1;stroke:none"
       id="path4726"
       sodipodi:cx="343.44537"
       sodipodi:cy="272.95706"
       sodipodi:rx="5.7240896"
       sodipodi:ry="3.8160596"
       d="m 349.16946,272.95706 c 0,2.10755 -2.56276,3.81606 -5.72409,3.81606 -3.16132,0 -5.72409,-1.70851 -5.72409,-3.81606 0,-2.10755 2.56277,-3.81606 5.72409,-3.81606 3.16133,0 5.72409,1.70851 5.72409,3.81606 z"
       transform="translate(-572.19533,95.659008)" />
    <path
       sodipodi:type="arc"
       style="fill:#000000;fill-opacity:1;stroke:none"
       id="path4728"
       sodipodi:cx="349.44205"
       sodipodi:cy="274.86511"
       sodipodi:rx="5.4515138"
       sodipodi:ry="3.2709084"
       d="m 354.89356,274.86511 c 0,1.80648 -2.44072,3.27091 -5.45151,3.27091 -3.01079,0 -5.45152,-1.46443 -5.45152,-3.27091 0,-1.80647 2.44073,-3.27091 5.45152,-3.27091 3.01079,0 5.45151,1.46444 5.45151,3.27091 z"
       transform="translate(-572.19533,95.659008)" />
    <path
       style="fill:#000000;fill-opacity:1;stroke:none"
       d="m -30.891823,534.54209 0,-20 c 0,-7 10,-7 10,0 l 0,20 z"
       id="path4740"
       inkscape:connector-curvature="0"
       sodipodi:nodetypes="ccccc" />
    <path
       sodipodi:nodetypes="cccccc"
       style="fill:#000000;fill-opacity:1;stroke:none"
       d="m -17.891823,534.54209 0,-13 5,-5 5.0000003,5 0,13 z"
       id="path4766"
       inkscape:connector-curvature="0" />
    <path
       sodipodi:nodetypes="ccccccccccc"
       inkscape:connector-curvature="0"
       id="path4796"
       d="m 12.180606,469.09131 0,-15 5,0 0,-5 5,0 0,5 5,0 5,5 5,0 0,10 z"
       style="fill:#000000;fill-opacity:1;stroke:none" />
    <path
       transform="translate(-334.22841,169.40837)"
       d="m 349.16946,272.95706 c 0,2.10755 -2.56276,3.81606 -5.72409,3.81606 -3.16132,0 -5.72409,-1.70851 -5.72409,-3.81606 0,-2.10755 2.56277,-3.81606 5.72409,-3.81606 3.16133,0 5.72409,1.70851 5.72409,3.81606 z"
       sodipodi:ry="3.8160596"
       sodipodi:rx="5.7240896"
       sodipodi:cy="272.95706"
       sodipodi:cx="343.44537"
       id="path4798"
       style="fill:#000000;fill-opacity:1;stroke:none"
       sodipodi:type="arc" />
    <path
       transform="translate(-334.22841,169.40837)"
       d="m 354.89356,274.86511 c 0,1.80648 -2.44072,3.27091 -5.45151,3.27091 -3.01079,0 -5.45152,-1.46443 -5.45152,-3.27091 0,-1.80647 2.44073,-3.27091 5.45152,-3.27091 3.01079,0 5.45151,1.46444 5.45151,3.27091 z"
       sodipodi:ry="3.2709084"
       sodipodi:rx="5.4515138"
       sodipodi:cy="274.86511"
       sodipodi:cx="349.44205"
       id="path4800"
       style="fill:#000000;fill-opacity:1;stroke:none"
       sodipodi:type="arc" />
    <path
       style="fill:#000000;fill-opacity:1;stroke:none"
       d="m -99.812725,645.44585 0,-15 5,0 0,-5 5,0 0,5 5,0 5,5 5,0 0,10 z"
       id="path4802"
       inkscape:connector-curvature="0"
       sodipodi:nodetypes="ccccccccccc" />
    <path
       sodipodi:type="arc"
       style="fill:#000000;fill-opacity:1;stroke:none"
       id="path4804"
       sodipodi:cx="343.44537"
       sodipodi:cy="272.95706"
       sodipodi:rx="5.7240896"
       sodipodi:ry="3.8160596"
       d="m 349.16946,272.95706 c 0,2.10755 -2.56276,3.81606 -5.72409,3.81606 -3.16132,0 -5.72409,-1.70851 -5.72409,-3.81606 0,-2.10755 2.56277,-3.81606 5.72409,-3.81606 3.16133,0 5.72409,1.70851 5.72409,3.81606 z"
       transform="translate(-446.22174,345.76291)" />
    <path
       sodipodi:type="arc"
       style="fill:#000000;fill-opacity:1;stroke:none"
       id="path4806"
       sodipodi:cx="349.44205"
       sodipodi:cy="274.86511"
       sodipodi:rx="5.4515138"
       sodipodi:ry="3.2709084"
       d="m 354.89356,274.86511 c 0,1.80648 -2.44072,3.27091 -5.45151,3.27091 -3.01079,0 -5.45152,-1.46443 -5.45152,-3.27091 0,-1.80647 2.44073,-3.27091 5.45152,-3.27091 3.01079,0 5.45151,1.46444 5.45151,3.27091 z"
       transform="translate(-446.22174,345.76291)" />
  </g>
</svg>
